<?xml version="1.0" standalone="no"?><!DOCTYPE svg PUBLIC "-//W3C//DTD SVG 1.1//EN" "http://www.w3.org/Graphics/SVG/1.1/DTD/svg11.dtd"><svg class="icon" width="200px" height="200.00px" viewBox="0 0 1024 1024" version="1.1" xmlns="http://www.w3.org/2000/svg"><path d="M0 512A512 512 0 1 0 512 0 512 512 0 0 0 0 512z" fill="#F5F5F5" /><path d="M887.467 857.941c-13.483-71.936-139.947-140.629-253.014-177.92-5.461-1.792-40.021-17.066-18.432-82.858a364.8 364.8 0 0 0 99.072-242.518c0-140.8-93.866-214.784-202.837-214.784s-202.41 73.472-202.41 214.784a364.288 364.288 0 0 0 99.242 243.2c22.016 57.771-17.067 79.19-25.6 82.176-107.776 38.827-233.045 107.947-246.955 177.92A511.317 511.317 0 1 1 1024 511.317a509.525 509.525 0 0 1-136.533 346.624" fill="#DDDDDD" /></svg>